<svg xmlns="http://www.w3.org/2000/svg" xmlns:xlink="http://www.w3.org/1999/xlink" id="Layer_1" viewBox="0 0 917.07 520.33">
  <path fill="#fff" fill-rule="evenodd" d="M913.73 447.18l-118.2-182.67c-3.63-3.77-15.48-6.6-27.4-6.59H152.5c-11.38.05-22.42 2.98-24.69 6.58L4.13 447.18c-4.59 6.6 4.13 12.09 19.55 12.14h865.4c16.69.24 27.42-5.1 24.65-12.14z" clip-rule="evenodd" opacity=".5"/>
  <path fill="none" fill-rule="evenodd" stroke="#353595" stroke-linecap="round" stroke-linejoin="round" stroke-miterlimit="10" stroke-width="1.695" d="M866.55 481.94H56.87c-15.52 0-30.17-5.18-39.63-14.01L1.25 453.94c3.59 0 14.61 6.01 18.24 6.01l876.45-.66c6.27 0 12.54-5 18.81-4.99-6.16 5.48-10.33 10.96-16.49 16.43-7.57 7.07-19.29 11.21-31.71 11.21z" clip-rule="evenodd"/>
  <path fill="none" fill-rule="evenodd" stroke="#353595" stroke-miterlimit="10" stroke-width="5.806" d="M913.73 447.18l-118.2-182.67c-3.63-3.77-15.48-6.6-27.4-6.59H152.5c-11.38.05-22.42 2.98-24.69 6.58L4.13 447.18c-4.59 6.6 4.13 12.09 19.55 12.14h865.4c16.69.24 27.42-5.1 24.65-12.14z" clip-rule="evenodd"/>
  <path fill="none" fill-rule="evenodd" stroke="#353595" stroke-miterlimit="10" stroke-width="3.318" d="M94.36 341.68c2.47-3.83 12.92-6.9 23.38-6.9s17.16 3.07 14.94 6.9c-2.25 3.88-12.77 7.06-23.48 7.06-10.62-.04-17.14-3.21-14.66-7.06h-.18z" clip-rule="evenodd"/>
  <path fill="none" stroke="#353595" stroke-linecap="round" stroke-miterlimit="10" stroke-width="3.318" d="M820.89 337.78l8.24 13.53m-11.54-18.95l.27.45"/>
  <path fill="none" stroke="#353595" stroke-linecap="round" stroke-miterlimit="10" stroke-width="4" d="M785.25 471.94h-35M734.25 471.94h-35"/>
  <path d="M892.82 475.87c-7.22 4.51-16.52 7.07-26.26 7.07H56.87c-11.19 0-21.91-2.7-30.57-7.51L4.13 508.18c-4.59 6.6 4.13 12.09 19.55 12.14h865.4c16.69.24 27.42-5.11 24.65-12.14l-20.91-32.31z" opacity=".25"/>
  <g>
    <g id="Tri_2_">
      <path fill="#dfeff7" fill-rule="evenodd" d="M727.33 358.23c.2-6.45-1.33-12.84-4.42-18.51L657.54 227.9a39.991 39.991 0 0 1-5.47-20.19v-58.29c-7.41 2.87-20.46 4.78-35.33 4.78s-27.92-1.91-35.33-4.78v58.29c0 7.09-1.89 14.06-5.47 20.19l-65.36 111.83a36.189 36.189 0 0 0-4.42 18.51v1.59c0 14.98 49.51 27.12 110.58 27.12s110.58-12.14 110.58-27.12c.01-.55.01-1.6.01-1.6z" clip-rule="evenodd" opacity=".9"/>
      <path fill="#e4f2f9" d="M616.75 121.39c-23.09 0-41.8-4.59-41.8-10.25v33.28h.05c-.04.18-.05.35-.05.53 0 5.66 18.71 10.25 41.8 10.25s41.8-4.59 41.8-10.25c0-.18-.02-.35-.05-.53h.05v-33.28c0 5.66-18.71 10.25-41.8 10.25z" opacity=".9"/>
      <g opacity=".4">
        <path fill="#565656" d="M616.75 114.82c-15.24 0-27.6-3.03-27.6-6.77v28.97h.04c-.02.12-.04.23-.04.35 0 3.74 12.36 6.77 27.6 6.77s27.6-1.95 27.6-5.69c0-.12-.01-.23-.04-.35h.04v-30.05c0 3.74-12.36 6.77-27.6 6.77z"/>
        <path d="M627.64 114.93l.47 28.28c9.82-1.04 16.23-2.63 16.23-5.42 0-.12-.01-.23-.04-.35h.04v-28.73c.01 2.79-6.87 5.18-16.7 6.22z" opacity=".2"/>
        <ellipse cx="616.75" cy="108.71" fill="#777" fill-rule="evenodd" clip-rule="evenodd" rx="27.6" ry="6.77"/>
        <path fill="#777" d="M596.73 112.71c-4.69-1.21-7.58-2.85-7.58-4.66v28.97h.04c-.02.12-.04.23-.04.35 0 1.8 2.88 3.44 7.58 4.66v-29.32z" opacity=".7"/>
      </g>
      <path fill="#fff" d="M589.25 152.66c3.79.81 8.18 1.46 13 1.9v-33.8c-4.82-.44-9.21-1.09-13-1.9v33.8z" opacity=".5"/>
      <path fill="#353595" d="M633.25 121.56v31.8c14.88-1.57 25.3-5.2 25.3-9.42 0-.18-.02-.35-.05-.53h.05v-31.28c0 4.23-10.42 7.86-25.3 9.43z" opacity=".2"/>
      <ellipse cx="616.75" cy="112.14" fill="#f2f9fb" fill-rule="evenodd" clip-rule="evenodd" opacity=".9" rx="41.8" ry="10.25"/>
      <path fill="#4a4a89" d="M616.75 101.89c22.4 0 40.69 4.32 41.75 9.75.03-.17.05-.33.05-.5v33.28h-.05c.04.18.05.35.05.53 0 2.01-2.38 3.89-6.47 5.48v57.29c0 7.09 1.89 14.06 5.47 20.19l65.36 111.83c3.1 5.66 4.62 12.05 4.42 18.51v1.59c0 14.98-49.51 27.12-110.58 27.12s-110.58-12.14-110.58-27.12v-1.59c-.2-6.45 1.33-12.84 4.42-18.51l65.36-111.83a39.991 39.991 0 0 0 5.47-20.19v-57.29c-4.09-1.58-6.47-3.46-6.47-5.48 0-.18.02-.35.05-.53h-.05v-33.28c0 .17.02.33.05.5 1.07-5.43 19.35-9.75 41.75-9.75m0-2c-18.47 0-38.83 3.04-43.02 9.67-.48.37-.78.94-.78 1.59v33.28c0 .07 0 .14.01.21-.01.11-.01.21-.01.32 0 2.63 2.18 4.92 6.47 6.81v55.96c0 6.73-1.8 13.36-5.19 19.18l-65.36 111.83c-.01.02-.02.03-.03.05a38.296 38.296 0 0 0-4.67 19.49v1.56c0 10.58 18.44 17.33 33.91 21.12 21.04 5.16 48.98 8 78.67 8s57.63-2.84 78.67-8c15.47-3.79 33.91-10.54 33.91-21.12v-1.56c.2-6.79-1.41-13.53-4.67-19.49-.01-.02-.02-.03-.03-.05l-65.36-111.83a37.996 37.996 0 0 1-5.19-19.18v-55.96c4.3-1.89 6.47-4.18 6.47-6.81 0-.11 0-.21-.01-.32.01-.07.01-.14.01-.21v-33.28c0-.64-.3-1.21-.76-1.57-1.71-2.78-6.31-5.05-13.7-6.79-7.96-1.88-18.38-2.9-29.34-2.9z" opacity=".9"/>
      <g id="Liquid_2_">
        <defs>
          <path id="SVGID_1_" d="M720.36 351.35l-68.01-118.31c-3.12-5.34-5.77-14.42-5.77-20.61v-62.86c-6.46 2.5-16.85 4.17-29.82 4.17s-23.36-1.66-29.82-4.17v62.86c0 6.19-2.65 15.27-5.77 20.61l-68.01 118.31a6.952 6.952 0 0 0-.89 3.42v.05c0 14.16 46.79 25.63 104.5 25.63s104.5-11.48 104.5-25.63v-.05c-.02-1.2-.33-2.38-.91-3.42z"/>
        </defs>
        <clipPath id="SVGID_2_">
          <use overflow="visible" xlink:href="#SVGID_1_"/>
        </clipPath>
        <path fill="#ff8300" fill-rule="evenodd" d="M512.25 281.94h209v105h-209z" clip-path="url(#SVGID_2_)" clip-rule="evenodd"/>
        <ellipse cx="616.75" cy="282.82" fill="#ffa35f" fill-rule="evenodd" clip-path="url(#SVGID_2_)" clip-rule="evenodd" rx="63.75" ry="15.64"/>
      </g>
      <path fill="#353595" fill-rule="evenodd" d="M727.33 358.23c.2-6.45-1.33-12.84-4.42-18.51L657.54 227.9a39.991 39.991 0 0 1-5.47-20.19v-57.29c-7.41 2.87-20.46 4.78-35.33 4.78s-27.92-1.91-35.33-4.78v10c7.41 2.87 20.46 4.78 35.33 4.78 1.07 0 2.13-.01 3.18-.03 8.41-.16 15.32 6.58 15.32 14.99v30.17c0 4.09.63 8.15 1.86 12.05l43.29 137.06c1.23 3.9 1.86 7.96 1.86 12.05v10.19c27.34-4.94 45.08-12.89 45.08-21.85v-1.6z" clip-rule="evenodd" opacity=".15"/>
      <path fill="#fff" d="M592.25 153.25v55.98c0 4.8-1.19 9.52-3.47 13.75L520.4 347.99a29.915 29.915 0 0 0-3.53 12.49l.38 10.46c6.42 3.42 16.67 6.52 28 9l-1-9.71c0-3.89.76-7.74 2.23-11.35l56.56-135.53c1.46-3.52 2.21-7.29 2.21-11.1V154.8c-4.73-.33-9.12-.86-13-1.55z" opacity=".4"/>
      <path fill="#565656" d="M616.75 100.82c-15.24 0-27.6-3.03-27.6-6.77v15.97h.04c-.02.12-.04.23-.04.35 0 3.74 12.36 6.77 27.6 6.77s27.6-1.95 27.6-5.69c0-.12-.01-.23-.04-.35h.04V94.05c0 3.74-12.36 6.77-27.6 6.77z"/>
      <path d="M627.64 100.93l.47 15.28c9.82-1.04 16.23-2.63 16.23-5.42 0-.12-.01-.23-.04-.35h.04V94.71c.01 2.79-6.87 5.18-16.7 6.22z" opacity=".1"/>
      <ellipse cx="616.75" cy="94.71" fill="#777" fill-rule="evenodd" clip-rule="evenodd" rx="27.6" ry="6.77"/>
      <path fill="#777" d="M601.25 99.71c-4.69-1.21-12.1-3.85-12.1-5.66v15.97h.04c-.02.12-.07.24-.04.35 1.1 3.57 7.41 4.44 12.1 5.66V99.71z" opacity=".3"/>
      <g id="Numbers_2_" fill="#2b2bbc" opacity=".7">
        <path d="M581.43 363.85c-.95-.19-1.87.71-2.32 2.59-.43 1.86-.06 3.01.85 3.19 1.03.21 1.87-.73 2.33-2.64.43-1.78.12-2.94-.86-3.14zm-.18.58c.65.13.73 1.1.4 2.48-.34 1.43-.87 2.28-1.51 2.15-.57-.12-.75-1.02-.4-2.48.37-1.53.96-2.26 1.51-2.15zM585.11 364.59c-.95-.19-1.87.71-2.32 2.59-.43 1.86-.06 3.01.85 3.19 1.03.21 1.87-.73 2.33-2.64.43-1.78.12-2.95-.86-3.14zm-.18.58c.65.13.73 1.1.4 2.48-.34 1.43-.87 2.28-1.51 2.15-.57-.11-.75-1.02-.4-2.48.36-1.53.96-2.26 1.51-2.15zM584.8 348.69l.66.13 1.2-5.38-.59-.12-1.25.41.01.58 1-.33h.02l-1.05 4.71zM590.24 344.06c-1.03-.2-1.99.64-2.39 2.45-.38 1.78.07 2.9 1.06 3.1 1.13.22 1.99-.66 2.4-2.49.39-1.72 0-2.85-1.07-3.06zm-.16.56c.71.14.84 1.07.54 2.4-.31 1.37-.84 2.18-1.54 2.04-.63-.12-.85-1-.54-2.4.32-1.47.93-2.16 1.54-2.04zM592.23 326.79l.13-.59-2.32-.57v-.02l.5-.29c1.33-.81 2.2-1.43 2.42-2.4.17-.76-.12-1.65-1.24-1.93-.6-.15-1.16-.04-1.58.18l.11.56c.28-.14.73-.29 1.2-.18.77.19.91.75.79 1.29-.19.8-.94 1.33-2.55 2.3l-.67.41-.1.44 3.31.8zM595.94 322.03c-1.05-.26-2.01.54-2.41 2.31-.38 1.75.09 2.89 1.1 3.14 1.14.28 2.02-.55 2.42-2.35.37-1.69-.02-2.84-1.11-3.1zm-.17.54c.72.18.86 1.11.56 2.42-.3 1.35-.84 2.12-1.55 1.95-.64-.16-.87-1.04-.56-2.42.32-1.44.94-2.1 1.55-1.95zM595.6 303.49c.21.23.67.54 1.24.67 1.22.28 2.01-.32 2.19-1.17.16-.75-.25-1.36-.84-1.64v-.02c.67-.09 1.09-.49 1.2-1.04.14-.65-.18-1.38-1.18-1.62-.55-.13-1.11-.04-1.41.1l.07.57c.25-.11.68-.21 1.09-.12.63.15.81.59.72 1.01-.13.63-.82.76-1.32.64l-.38-.09-.11.54.38.09c.66.16 1.24.63 1.09 1.38-.09.45-.48.98-1.37.77-.48-.11-.89-.42-1.05-.6l-.32.53zM602.41 299.66c-1.03-.24-1.97.58-2.35 2.37-.36 1.77.11 2.91 1.1 3.14 1.12.26 1.98-.59 2.36-2.41.36-1.7-.04-2.85-1.11-3.1zm-.16.55c.71.17.85 1.11.57 2.42-.29 1.37-.81 2.15-1.51 1.99-.62-.15-.86-1.03-.57-2.42.31-1.46.91-2.13 1.51-1.99zM604.98 281.44l.32-1.43.71.16.12-.56-.71-.16.73-3.26-.74-.17-3 2.84-.1.47 2.35.52-.32 1.43.64.16zm-1.86-2.5v-.02l1.64-1.51c.19-.21.37-.41.59-.68l.02.01c-.08.27-.15.54-.21.82l-.39 1.75-1.65-.37zM609.08 276.76c-1.03-.23-1.97.58-2.37 2.33-.37 1.74.08 2.85 1.07 3.07 1.12.25 1.98-.59 2.38-2.37.37-1.67-.01-2.79-1.08-3.03zm-.16.54c.71.16.84 1.08.55 2.37-.3 1.34-.82 2.11-1.52 1.95-.62-.14-.85-1-.55-2.37.32-1.42.92-2.08 1.52-1.95zM611.91 253.85l-2.45-.56-.79 2.52c.19.02.43.04.72.1 1.02.23 1.38.83 1.26 1.54-.13.72-.77 1.05-1.42.9-.46-.11-.85-.37-1.04-.55l-.27.52c.21.22.66.5 1.22.62 1.11.25 2.04-.36 2.23-1.41.12-.68-.13-1.23-.49-1.56-.28-.27-.66-.45-1.05-.54-.19-.04-.3-.05-.42-.06l.44-1.35 1.95.45.11-.62zM614.62 254.37c-1.04-.24-1.95.59-2.27 2.41-.3 1.8.2 2.94 1.2 3.17 1.13.26 1.96-.61 2.28-2.45.3-1.72-.13-2.88-1.21-3.13zm-.14.56c.72.16.88 1.11.65 2.45-.24 1.38-.74 2.18-1.44 2.02-.63-.14-.9-1.04-.65-2.45.25-1.47.83-2.16 1.44-2.02z"/>
        <g>
          <path d="M617.84 231.75c-.13-.03-.3-.06-.52-.07-.68-.06-1.32.08-1.86.42-.65.41-1.22 1.16-1.44 2.22-.3 1.4.3 2.41 1.48 2.58 1.11.16 1.95-.63 2.14-1.57.2-1-.3-1.78-1.23-1.95-.59-.11-1.1.08-1.43.37h-.03c.31-.85 1.09-1.54 2.25-1.5.21.01.39.04.53.07l.11-.57zm-2.23 4.59c-.77-.12-1.05-.83-.89-1.71.03-.13.08-.23.15-.3.28-.35.75-.54 1.19-.46.66.12 1 .64.85 1.38-.15.74-.67 1.18-1.3 1.09zM620.58 232.31c-.98-.21-1.89.57-2.24 2.27-.33 1.69.16 2.73 1.13 2.87 1.08.15 1.86-.69 2.18-2.36.31-1.54-.07-2.57-1.07-2.78zm-.14.51c.67.14.81.99.57 2.2-.25 1.26-.72 2.02-1.4 1.92-.61-.09-.86-.9-.59-2.22.28-1.37.85-2.01 1.42-1.9z"/>
        </g>
        <g>
          <path d="M619.21 187.28c.99 0 1.77-.64 1.77-1.59 0-.67-.4-1.15-1.05-1.42v-.02c.64-.32.86-.82.86-1.28 0-.68-.5-1.35-1.51-1.35-.91 0-1.61.59-1.61 1.46 0 .47.25.94.82 1.23l.01.03c-.64.29-1.03.77-1.03 1.47-.01.79.65 1.47 1.74 1.47zm.01-.54c-.66 0-1.06-.49-1.04-1.04 0-.52.33-.94.94-1.13.7.21 1.14.53 1.14 1.2 0 .56-.41.97-1.04.97zm.01-4.59c.63 0 .88.46.88.89 0 .5-.34.83-.79.99-.6-.17-.99-.46-.99-1.01 0-.46.32-.87.9-.87zM623.37 181.62c-1.06 0-1.81 1.01-1.81 2.85.02 1.81.7 2.81 1.72 2.81 1.15 0 1.81-1.03 1.81-2.89 0-1.74-.63-2.77-1.72-2.77zm-.04.57c.73 0 1.06.88 1.06 2.23 0 1.4-.34 2.28-1.06 2.28-.64 0-1.06-.81-1.06-2.23-.01-1.48.44-2.28 1.06-2.28z"/>
        </g>
        <g>
          <path d="M617.48 206.03l-.05.61 2.54.21v.02l-2.66 4.64.73.06 2.68-4.78.04-.49-3.28-.27zM623.21 206.42c-1.05-.09-1.89.86-2.04 2.69-.14 1.81.47 2.86 1.48 2.95 1.15.1 1.89-.87 2.05-2.73.14-1.74-.39-2.81-1.49-2.91zm-.08.57c.73.06.98.97.87 2.31-.12 1.39-.54 2.25-1.25 2.19-.64-.05-.99-.89-.87-2.31.12-1.49.63-2.24 1.25-2.19z"/>
        </g>
        <g>
          <path d="M617.93 165.55c.17.01.39 0 .65-.04.56-.07 1.11-.32 1.51-.73.51-.52.9-1.36.9-2.57 0-1.4-.66-2.31-1.72-2.31s-1.78.91-1.78 1.95c0 .93.6 1.68 1.54 1.68.52 0 .94-.22 1.22-.59h.02c-.1.65-.34 1.13-.69 1.46-.3.3-.68.47-1.09.53-.24.02-.42.04-.57.02v.6zm1.28-5.09c.74 0 1.06.72 1.06 1.65 0 .12-.02.2-.06.27-.18.33-.55.57-1.02.57-.61 0-1-.48-1-1.16 0-.78.42-1.33 1.02-1.33zM623.37 159.89c-1.06 0-1.81 1.01-1.81 2.85.02 1.81.7 2.81 1.72 2.81 1.15 0 1.81-1.03 1.81-2.89 0-1.74-.63-2.77-1.72-2.77zm-.04.58c.73 0 1.06.88 1.06 2.23 0 1.4-.34 2.28-1.06 2.28-.64 0-1.06-.81-1.06-2.23-.01-1.49.44-2.28 1.06-2.28z"/>
        </g>
        <path d="M573.6 348.04l-3.77-.96a.335.335 0 0 1-.23-.42c.05-.19.24-.3.41-.25l3.76.97c.17.04.27.23.22.41-.04.19-.22.3-.39.25zm-.4 2.68c.05-.18-.05-.37-.22-.41l-3.78-.93a.347.347 0 0 0-.41.26c-.05.19.05.37.23.42l3.79.92c.16.04.34-.08.39-.26zm-.81 2.94c.05-.18-.05-.36-.22-.4l-3.8-.88c-.18-.04-.36.08-.42.26-.05.19.05.37.23.41l3.81.87c.17.04.35-.08.4-.26zm-.81 2.94c.05-.18-.05-.36-.22-.4l-3.82-.84a.364.364 0 0 0-.42.27c-.05.19.05.37.23.41l3.82.83c.18.04.36-.08.41-.27zm-.81 2.95c.05-.18-.05-.36-.22-.4l-3.84-.79c-.18-.04-.37.09-.42.27-.05.19.05.37.23.41l3.84.78c.18.04.36-.08.41-.27zm-.81 2.97c.05-.18-.05-.36-.22-.4l-3.86-.74a.38.38 0 0 0-.42.28c-.05.19.05.37.23.4l3.86.73c.17.03.36-.09.41-.27zm2.73 4.37c.05-.18-.05-.36-.22-.39l-7.64-1.35c-.18-.03-.37.1-.42.28-.05.19.05.37.23.4l7.65 1.33c.17.04.35-.08.4-.27zm7.56-41.57a.345.345 0 0 0-.24-.42l-3.96-.97a.36.36 0 0 0-.42.25c-.05.18.06.37.24.42l3.96.97c.18.04.37-.07.42-.25zm-.8 2.96a.345.345 0 0 0-.24-.42l-3.96-.97a.36.36 0 0 0-.42.25c-.05.18.06.37.24.42l3.96.97c.19.05.37-.07.42-.25zm-.79 2.96a.345.345 0 0 0-.24-.42l-3.96-.97a.36.36 0 0 0-.42.25c-.05.18.06.37.24.42l3.96.97c.19.05.37-.06.42-.25zm-.79 2.97a.345.345 0 0 0-.24-.42l-3.96-.97a.36.36 0 0 0-.42.25c-.05.18.06.37.24.42l3.96.97c.18.05.37-.07.42-.25zm-.79 2.96a.345.345 0 0 0-.24-.42l-3.96-.97a.36.36 0 0 0-.42.25c-.05.18.06.37.24.42l3.96.97c.18.05.37-.06.42-.25zm-.79 2.97a.345.345 0 0 0-.24-.42l-3.96-.97a.36.36 0 0 0-.42.25c-.05.18.06.37.24.42l3.96.97c.18.05.37-.07.42-.25zm2.97 4.68a.345.345 0 0 0-.24-.42l-7.93-1.94a.36.36 0 0 0-.42.25c-.05.18.06.37.24.42l7.93 1.94c.19.05.37-.06.42-.25zm6.99-41.9a.341.341 0 0 0-.22-.42l-3.81-1.01c-.18-.05-.36.07-.41.25-.05.19.05.37.23.42l3.82 1c.16.05.34-.06.39-.24zm-.81 2.95a.339.339 0 0 0-.23-.42l-3.83-.99c-.18-.05-.36.07-.41.25-.05.19.05.37.23.42l3.83.98c.18.06.36-.06.41-.24zm-.8 2.96a.339.339 0 0 0-.23-.42l-3.84-.97c-.18-.04-.36.07-.42.26-.05.19.05.37.23.42l3.84.96c.18.05.37-.07.42-.25zm-.81 2.97c.05-.19-.05-.37-.23-.41l-3.85-.95a.358.358 0 0 0-.42.26c-.05.19.05.37.23.42l3.85.94c.18.04.37-.07.42-.26zm-.81 2.98c.05-.19-.05-.37-.23-.41l-3.86-.93a.358.358 0 0 0-.42.26c-.05.19.05.37.23.42l3.86.92c.18.04.37-.07.42-.26zm-.82 2.99c.05-.19-.05-.37-.23-.41l-3.87-.91a.366.366 0 0 0-.42.26c-.05.19.05.38.23.42l3.88.9c.18.04.36-.07.41-.26zm2.81 4.62c.05-.19-.05-.37-.23-.41l-7.72-1.75a.364.364 0 0 0-.42.27c-.05.19.05.38.23.42l7.73 1.74c.18.04.36-.08.41-.27zm7.34-41.85c.05-.19-.05-.38-.23-.43l-3.85-1.05c-.18-.05-.36.06-.41.25-.05.19.05.38.23.43l3.85 1.05c.18.05.36-.06.41-.25zm-.81 2.99c.05-.19-.05-.38-.23-.43l-3.85-1.05c-.18-.05-.36.06-.41.25-.05.19.05.38.23.43l3.85 1.05c.17.05.36-.06.41-.25zm-.82 3c.05-.19-.05-.38-.23-.43l-3.85-1.05c-.18-.05-.36.06-.41.25-.05.19.05.38.23.43l3.85 1.05c.17.05.36-.06.41-.25zm-.82 2.99c.05-.19-.05-.38-.23-.43l-3.85-1.05c-.18-.05-.36.06-.41.25-.05.19.05.38.23.43l3.85 1.05c.18.05.36-.06.41-.25zm-.81 3c.05-.19-.05-.38-.23-.43l-3.85-1.05c-.18-.05-.36.06-.41.25s.05.38.23.43l3.85 1.05c.17.05.36-.07.41-.25zm-.82 2.99c.05-.19-.05-.38-.23-.43l-3.85-1.05c-.18-.05-.36.06-.41.25s.05.38.23.43l3.85 1.05c.18.05.36-.06.41-.25zm2.83 4.8c.05-.19-.05-.38-.23-.43l-7.69-2.1c-.18-.05-.36.06-.41.25-.05.19.05.38.23.43l7.69 2.1c.17.05.36-.06.41-.25zm7.37-42.23c.05-.19-.05-.38-.23-.43l-3.85-1.05c-.18-.05-.36.06-.41.25-.05.19.05.38.23.43l3.85 1.05c.18.05.36-.06.41-.25zm-.81 3c.05-.19-.05-.38-.23-.43l-3.85-1.05c-.18-.05-.36.06-.41.25-.05.19.05.38.23.43l3.85 1.05c.17.05.36-.07.41-.25zm-.82 2.99c.05-.19-.05-.38-.23-.43l-3.85-1.05c-.18-.05-.36.06-.41.25s.05.38.23.43l3.85 1.05c.17.05.36-.06.41-.25zm-.82 3c.05-.19-.05-.38-.23-.43l-3.85-1.05c-.18-.05-.36.06-.41.25s.05.38.23.43l3.85 1.05c.18.05.36-.07.41-.25zm-.81 2.99c.05-.19-.05-.38-.23-.43l-3.85-1.05c-.18-.05-.36.06-.41.25s.05.38.23.43l3.85 1.05c.17.05.36-.06.41-.25zm-.82 3c.05-.19-.05-.38-.23-.43l-3.85-1.05c-.18-.05-.36.06-.41.25-.05.19.05.38.23.43l3.85 1.05c.18.05.36-.07.41-.25zm2.83 4.8c.05-.19-.05-.38-.23-.43l-7.69-2.1c-.18-.05-.36.06-.41.25s.05.38.23.43l7.69 2.1c.17.05.36-.07.41-.25zm7.37-42.24c.05-.19-.05-.38-.23-.43l-3.85-1.05c-.18-.05-.36.06-.41.25-.05.19.05.38.23.43l3.85 1.05c.18.05.36-.06.41-.25zm-.81 3c.05-.19-.05-.38-.23-.43l-3.85-1.05c-.18-.05-.36.06-.41.25s.05.38.23.43l3.85 1.05c.17.05.35-.06.41-.25zm-.82 2.99c.05-.19-.05-.38-.23-.43l-3.85-1.05c-.18-.05-.36.06-.41.25s.05.38.23.43l3.85 1.05c.17.05.36-.06.41-.25zm-.82 3c.05-.19-.05-.38-.23-.43l-3.85-1.05c-.18-.05-.36.06-.41.25-.05.19.05.38.23.43l3.85 1.05c.18.05.36-.06.41-.25zm-.81 2.99c.05-.19-.05-.38-.23-.43l-3.85-1.05c-.18-.05-.36.06-.41.25-.05.19.05.38.23.43l3.85 1.05c.17.05.36-.06.41-.25zm-.82 3c.05-.19-.05-.38-.23-.43l-3.85-1.05c-.18-.05-.36.06-.41.25-.05.19.05.38.23.43l3.85 1.05c.18.05.36-.06.41-.25zm2.83 4.8c.05-.19-.05-.38-.23-.43l-7.69-2.1c-.18-.05-.36.06-.41.25s.05.38.23.43l7.69 2.1c.17.05.35-.06.41-.25zm6.23-42.53c.01-.2-.14-.36-.32-.36l-3.99-.06c-.18 0-.33.14-.34.31 0 .17.14.32.32.32l3.98.13c.19.01.35-.14.35-.34zm-.19 3.12c.02-.19-.12-.37-.3-.38l-3.97-.37a.326.326 0 0 0-.36.28c-.02.17.11.33.3.35l3.96.44c.18.02.34-.12.37-.32zm-.44 3.1c.03-.19-.09-.37-.27-.4l-3.93-.68c-.18-.03-.35.08-.38.25-.03.17.09.34.27.37l3.92.74c.18.04.35-.08.39-.28zm-.68 3.06c.05-.19-.05-.38-.23-.42l-3.87-.98c-.18-.04-.36.05-.4.22-.04.17.06.34.24.39l3.85 1.05c.18.04.36-.07.41-.26zm-.81 3c.05-.19-.05-.38-.23-.43l-3.85-1.05c-.18-.05-.36.06-.41.25-.05.19.05.38.23.43l3.85 1.05c.17.05.36-.07.41-.25zm-.82 2.99c.05-.19-.05-.38-.23-.43l-3.85-1.05c-.18-.05-.36.06-.41.25-.05.19.05.38.23.43l3.85 1.05c.17.05.36-.06.41-.25zm2.82 4.8c.05-.19-.05-.38-.23-.43l-7.69-2.1c-.18-.05-.36.06-.41.25-.05.19.05.38.23.43l7.69 2.1c.18.05.36-.06.41-.25zm.13-43.35c0-.19-.15-.35-.33-.35h-3.99c-.18 0-.33.16-.33.35s.15.35.33.35h3.99c.18 0 .33-.16.33-.35zm0 3.1c0-.19-.15-.35-.33-.35h-3.99c-.18 0-.33.16-.33.35s.15.35.33.35h3.99c.18 0 .33-.15.33-.35zm0 3.11c0-.19-.15-.35-.33-.35h-3.99c-.18 0-.33.16-.33.35s.15.35.33.35h3.99c.18 0 .33-.16.33-.35zm0 3.1c0-.19-.15-.35-.33-.35h-3.99c-.18 0-.33.16-.33.35s.15.35.33.35h3.99c.18 0 .33-.16.33-.35zm0 3.11c0-.19-.15-.35-.33-.35h-3.99c-.18 0-.33.16-.33.35 0 .19.15.35.33.35h3.99c.18 0 .33-.16.33-.35zm0 3.1c0-.19-.15-.35-.33-.35h-3.99c-.18 0-.33.16-.33.35s.15.35.33.35h3.99c.18 0 .33-.16.33-.35zm3.99 3.89c0-.19-.15-.35-.33-.35h-7.97c-.18 0-.33.16-.33.35s.15.35.33.35h7.97c.18 0 .33-.16.33-.35zm-3.99-42.69c0-.19-.15-.35-.33-.35h-3.99c-.18 0-.33.16-.33.35s.15.35.33.35h3.99c.18 0 .33-.15.33-.35zm4-3.16c0-.19-.15-.35-.33-.35h-7.99c-.18 0-.33.16-.33.35s.15.35.33.35h7.99c.18 0 .33-.16.33-.35zm-4 6.27c0-.19-.15-.35-.33-.35h-3.99c-.18 0-.33.16-.33.35s.15.35.33.35h3.99c.18 0 .33-.16.33-.35zm0 3.1c0-.19-.15-.35-.33-.35h-3.99c-.18 0-.33.16-.33.35s.15.35.33.35h3.99c.18 0 .33-.16.33-.35zm0 3.11c0-.19-.15-.35-.33-.35h-3.99c-.18 0-.33.16-.33.35s.15.35.33.35h3.99c.18 0 .33-.16.33-.35zm0 3.1c0-.19-.15-.35-.33-.35h-3.99c-.18 0-.33.16-.33.35s.15.35.33.35h3.99c.18 0 .33-.16.33-.35zm0 3.1c0-.19-.15-.35-.33-.35h-3.99c-.18 0-.33.16-.33.35s.15.35.33.35h3.99c.18 0 .33-.15.33-.35zm3.99 3.89c0-.19-.15-.35-.33-.35h-7.97c-.18 0-.33.16-.33.35s.15.35.33.35h7.97c.18 0 .33-.15.33-.35z"/>
      </g>
    </g>
    <g id="Tube_2_">
      <path fill="#fff" d="M621 92.66V69.41c0-9.2.54-18.18-6.08-25.61-6.1-6.85-14.22-7.89-22.76-7.89h-28.11c-7.96 0-15.93.06-23.9 0-4.52-.03-8.79-1.24-11.77-4.93-2.75-3.4-3.2-7.97-4.54-12.01-1.19-3.59-2.58-7.31-4.52-10.57-3.3-5.57-9.65-8.62-15.93-5.94-5.47 2.33-8.75 8.31-11.31 13.37-3 5.94-5.64 12.41-6.79 19-.93 5.28-.43 10.74.1 16.04.59 5.92 1.83 26.29 12.21 23.64 4.28-1.09 6-6.29 7.02-10.03 1.6-5.88 2.22-12.13 2.62-18.2.8-12.29-2.62-24.32-8.81-34.97-3-5.16-6.72-9.15-12.84-10.27-6.19-1.14-10.77 1.2-14.46 5.98-6.81 8.82-13.01 22.09-12.96 33.43.02 5.79.84 11.7 1.87 17.38.85 4.69 1.8 10.78 5.1 14.5 8.57 9.67 13.26-9.27 14.1-14.5.92-5.71 1.64-11.59 1.63-17.38 0-5.85-2-11.51-4.21-16.86-3.95-9.55-10.85-26.06-24.1-22.24-5.55 1.6-8.98 7.11-11.76 11.77-3.43 5.77-6.44 12.14-8.17 18.65-2.71 10.19-.54 23.33 2.62 33.2 1.16 3.64 3 8.57 7.19 9.62 4.32 1.09 7.15-2.65 8.51-6.2 1.99-5.2 2.43-11.12 2.84-16.62.39-5.19.87-10.65.25-15.83-.77-6.47-3.22-12.76-5.93-18.64-2.3-4.97-5.22-10.98-9.81-14.26-13.13-9.4-22.93 6.75-27.32 16.85-2.44 5.63-4.61 11.66-4.78 17.85-.15 5.45.46 11.04 1.15 16.43.7 5.45 2.93 25.02 12.99 19.89 3.81-1.95 5.14-7.31 6.02-11.09 1.36-5.86 1.97-11.94 2.33-17.94.73-12.1-3.04-23.52-9.22-33.91-2.89-4.86-6.4-9.5-12.3-10.51-6.3-1.08-11.29 2.01-14.95 6.86-7.4 9.81-11.73 22.28-11.62 34.53.05 5.96.27 11.93 1.17 17.83.66 4.33 1.66 9.95 5.53 12.66 10.11 7.09 13.56-11.14 14.24-17.1 1.35-11.89.96-23.13-3.06-34.49-3-8.46-9.72-24.82-21.83-20.03-5.87 2.32-8.84 10.91-10.75 16.34-1.17 3.32-2.08 6.73-2.95 10.15-.88 3.47-1.22 7.13-5.49 7.63-6.1.72-12.72 0-18.85 0h-30.15c-6.53 0-13.74-.76-19.92 1.7-9.84 3.92-14.9 13.26-14.97 23.49-.12 17.6-.03 35.21-.04 52.81 0 4.91-.01 9.83-.01 14.74 0 4.83 7.5 4.83 7.5 0 .02-22.94-.73-46.01.05-68.94.33-9.53 7.59-16.21 17-16.31 5.3-.06 10.6 0 15.9 0 14.02 0 28.06.18 42.09 0 2.1-.03 4.11-.13 6.1-.98 5.62-2.39 6.81-7.44 8.18-12.79 1.49-5.85 3.12-11.86 6.2-17.1 1.51-2.56 2.95-4.85 6.1-3.34 1.6.77 2.61 2.3 3.54 3.76 5.13 8.01 8.65 18.73 8.62 28.28-.02 4.64-.17 9.29-.64 13.91-.35 3.44-.57 8.99-2.94 11.78-.21.25.28.73-.19-.46-.8-2-1.38-3.96-1.76-6.09-.84-4.72-1.01-9.57-1.12-14.35-.23-10.32 1.85-19.13 6.95-28.26 2.4-4.29 6.11-10.94 12.11-8.46 3.97 1.64 6.37 7.31 8.16 10.91 4.58 9.22 6.46 17.73 5.68 27.91-.36 4.79-.91 9.61-2.04 14.29-.41 1.7-1.33 3.39-1.67 5.06-.28 1.35-1.2.63.22.73 1.58.11.53.56.29-.71-.76-4.08-2.39-8-2.97-12.22-.65-4.72-1.01-9.5-1.14-14.26-.26-9.7 4.37-20.45 10.15-28.11 9.13-12.12 17.29 7.18 19.95 14.45 3.32 9.04 3.15 17.63 2.32 27.1-.2 2.32-.46 4.63-.87 6.92-.36 2-1.44 4.14-1.65 6.09-.02.2-.55.74-.5.9.18.58-.23-1.13.31 0-.13-.27 1.39-.01 1.32.16.03-.08-.5-.42-.51-.58-.15-1.43-1.63-3.54-2.06-5.03-2.29-7.88-4.44-18.4-2.72-26.6 1.16-5.5 3.57-10.77 6.23-15.69 1.89-3.5 4.7-9.81 8.85-11.13 5.4-1.71 8.59 4.78 10.72 8.57 2.68 4.76 4.96 9.79 6.58 15.01 2.75 8.81 1.31 18.8-.59 27.69-.41 1.93-.82 3.95-1.59 5.78-.09.2-.92 1.63-.87 1.74.06.12 1.87-.17 1.85-.11.17-.56-1.68-4.02-1.89-4.77-.73-2.57-1.26-5.2-1.7-7.83-1.61-9.56-1.87-17.78 1.55-26.96 2.54-6.81 9.64-25.94 19.77-17.48 3.53 2.95 5.68 8.53 7.34 12.67 1.95 4.84 3.83 10.19 4.22 15.44.62 8.37-.16 19.18-3.41 26.96-.13.31-1.08 1.75-1.02 1.97-.06-.2 1.45.3 1.47.22.13-.46-1.9-4.23-2.11-4.98-1.29-4.73-1.85-9.66-2.23-14.53-.8-10.3 1.23-19.06 5.92-28.34 1.92-3.79 6.23-13.28 11.97-10.06 4.75 2.66 6.44 12.3 7.71 17.05 2.65 9.91 10.36 16.5 20.74 16.81 4.88.14 9.78 0 14.66 0 14.08 0 28.16-.08 42.24 0 9.18.05 17.04 5.92 17.59 15.57.32 5.7.02 11.48.02 17.18v16.5c0 4.81 7.5 4.82 7.5-.01z" opacity=".6"/>
      <path fill="#2b2bbc" d="M619.5 94.66V71.79c0-8.52 1.1-17.6-4.1-24.97-5.28-7.48-13.28-9.41-21.86-9.41h-52.67c-4.24 0-8.27-.63-11.68-3.48-6.24-5.22-6.53-15.34-9.94-22.42-2.51-5.21-6.78-9.64-13.14-8.36-5.63 1.13-8.95 6.5-11.54 11.16-6.05 10.91-8.91 21.83-7.9 34.21.45 5.43.88 24.67 9.45 24.67 8.57 0 9-19.24 9.45-24.67 1.02-12.44-1.65-23.82-7.56-34.88-2.52-4.72-5.51-9.08-10.86-10.7-5.5-1.66-10.44-.36-14.08 4-6.91 8.27-12.99 21.43-13.41 32.32-.21 5.42.63 11.05 1.51 16.38.79 4.86 1.58 11.1 4.66 15.16 6.82 8.98 11.02-8.05 11.75-12.21 2.04-11.71 2.59-22.22-1.88-33.4-3.44-8.59-9.56-24.82-21.48-22.7-5.49.98-8.76 5.9-11.5 10.32-3.49 5.64-6.45 11.85-8.33 18.22-2.98 10.09-.88 22.64 2 32.56.95 3.27 2.46 8.38 6.21 9.48 3.44 1.01 5.63-2.03 6.78-4.8 2.04-4.92 2.44-10.65 2.86-15.91.41-5.21.91-10.71.35-15.92-.66-6.15-2.98-12.16-5.51-17.76-2.2-4.87-4.96-10.81-9.32-14.16-12.21-9.4-21.5 6.93-25.49 16.14-2.33 5.38-4.41 11.17-4.58 17.09-.15 5.45.46 11.04 1.15 16.43.54 4.17 2.38 22.72 10.73 18.59 3.42-1.69 4.57-6.89 5.33-10.2 1.33-5.73 1.92-11.68 2.28-17.54.72-11.85-2.96-22.97-9.02-33.15-2.67-4.5-5.89-8.96-11.41-9.82-5.64-.88-9.96 1.86-13.25 6.17-7.44 9.73-11.55 22.11-11.41 34.27.06 5.83.27 11.71 1.19 17.48.6 3.76 1.48 9.12 4.98 11.38 8.87 5.73 11.31-11.83 11.81-16.55 1.29-12.09.76-23.26-3.52-34.75-2.61-6.99-9.5-23.2-20.07-17.51-5.27 2.84-7.89 11.19-9.63 16.46-1.88 5.69-2.18 16.77-9.52 17.49-6.42.64-13.23 0-19.68 0h-29.99c-6.59 0-13.74-.76-19.86 2.15-8.78 4.17-12.71 12.7-12.75 22.02-.07 17.74-.03 35.47-.04 53.21 0 4.96-.01 9.92-.01 14.88 0 2.9 4.5 2.9 4.5 0 .02-23.23-.69-46.57.05-69.78.33-10.3 7.95-17.67 18.18-17.97 4.95-.14 9.93 0 14.89 0 14.35 0 28.71.12 43.07 0 7.71-.07 11.06-4.23 12.86-11.41 1.55-6.18 3.18-12.54 6.32-18.13 1.67-2.98 3.51-5.94 7.31-4.91 2.14.58 3.47 2.11 4.7 3.86 5.61 8.01 9.4 19.73 9.4 29.5 0 4.39-.14 8.79-.53 13.15-.34 3.78-.47 10.44-3.13 13.54-2.98 3.46-4.31-4.09-4.72-6.23-.93-4.83-1.13-9.82-1.25-14.73-.27-10.79 1.8-19.99 7.14-29.57 2.68-4.8 6.5-11.22 13.07-9.44 4.9 1.33 7.73 7.73 9.79 11.89 4.7 9.46 6.68 18.23 5.89 28.67-.37 4.92-.93 9.88-2.09 14.69-.41 1.69-.81 4.39-2 5.74-1.18 1.34-.84 1.23-1.9-.3-2.38-3.44-2.71-9.46-3.23-13.45-.59-4.57-.96-9.18-1.08-13.79-.27-10.13 4.64-21.79 10.93-29.64 10.39-12.96 19.54 8.36 22.34 16.21 3.24 9.1 2.97 17.96 2.1 27.46-.34 3.66-.31 10.48-2.83 13.51-1.07 1.27-.75 1.31-1.91 0-1.35-1.52-1.89-4.37-2.39-6.25-2.22-8.29-4.3-18.97-2.18-27.46 1.41-5.64 3.91-11.05 6.75-16.11 2.33-4.15 5.62-10.85 11.1-11 5.64-.15 8.74 6.44 11.03 10.67 2.74 5.06 5.11 10.43 6.64 15.98 2.41 8.72.67 19.22-1.34 27.86-.44 1.92-.91 3.96-1.79 5.73-.91 1.82-.9 1.86-1.85 0-2.04-3.96-2.73-8.85-3.41-13.2-1.6-10.26-1.46-18.64 2.44-28.37 3.18-7.95 11.82-27.01 22.47-15.41 3.69 4.02 5.98 9.9 7.8 14.92 1.69 4.67 3.25 9.66 3.37 14.67.11 4.51-.34 9.12-.88 13.59-.47 3.85-.75 11.06-3.43 14.14-1.21 1.39-.87 1.47-2.08 0-1.22-1.49-1.63-4.25-2.06-6.08-1.19-5.1-1.73-10.37-2.05-15.59-.64-10.46 2.41-20.01 7.48-29.15 2.85-5.15 9.29-13.85 15.06-6.15 4.17 5.57 4.72 12.95 7.21 19.21 5.83 14.63 22.03 12.27 34.69 12.27 13.71 0 27.44-.16 41.15 0 10.29.12 18.08 7.58 18.41 17.9.2 6.27 0 12.57 0 18.84v16.02c-.01 2.89 4.49 2.9 4.49 0z" opacity=".2"/>
      <g fill="#fff">
        <path d="M280.57 104.44h-6.38c-3.13 0-5.68-2.56-5.68-5.68V86.62c0-3.13 2.56-5.68 5.68-5.68h6.38c3.13 0 5.68 2.56 5.68 5.68v12.14c0 3.12-2.56 5.68-5.68 5.68z" opacity=".6"/>
        <path d="M274.57 101.44h-1.64c-1.23 0-2.23-1-2.23-2.23V86.17c0-1.23 1-2.23 2.23-2.23h1.64c1.23 0 2.23 1 2.23 2.23v13.04c0 1.23-1 2.23-2.23 2.23z" opacity=".3"/>
        <path d="M284.03 99.75c-.67 0-1.22-.55-1.22-1.22V86.86c0-.67.55-1.22 1.22-1.22.67 0 1.22.55 1.22 1.22v11.67c0 .67-.55 1.22-1.22 1.22zM270.03 98.44c-.55 0-1-.45-1-1v-9.51c0-.55.45-1 1-1s1 .45 1 1v9.51c-.01.55-.45 1-1 1z" opacity=".5"/>
        <path d="M263.96 88.23h3v8.42h-3z" opacity=".3" transform="rotate(90 265.46 92.443)"/>
        <path d="M262.04 91.54c0-.33.27-.59.59-.59h5.66a.591.591 0 0 1 0 1.18h-5.66a.579.579 0 0 1-.59-.59z" opacity=".5"/>
        <ellipse cx="261" cy="92.44" opacity=".6" rx="1.86" ry="6.5"/>
        <ellipse cx="259.8" cy="92.44" opacity=".6" rx="1.69" ry="5.92"/>
        <ellipse cx="258.61" cy="92.44" opacity=".6" rx="1.49" ry="5.21"/>
      </g>
    </g>
    <g id="Top">
      <path fill="#e4f2f9" d="M346.37 218.03c0-.07-.1-.08-.11-.01-1.96 8.49-29.6 15.34-64.17 15.91l-8.37.02c-34.76-.45-62.54-7.27-64.26-15.82-.01-.05-.08-.05-.08.01l.02 10.38v.87c0 2.17 1.7 4.24 4.76 6.14l.22 130.53h.04c-.01.12-.04.24-.04.36.02 8.64 28.51 15.58 63.65 15.52s63.61-7.12 63.6-15.75c0-.12-.03-.24-.04-.36h.04l-.22-130.37c3.21-1.95 4.99-4.08 4.99-6.31v-.87l-.03-10.25z" opacity=".9"/>
      <path fill="#fff" d="M232.85 242c6.22 1.32 13.42 2.37 21.31 3.08l-.02-12.09c-7.89-.7-15.09-1.75-21.31-3.07l.02 12.08z" opacity=".5"/>
      <path fill="#353595" d="M304.94 234.2l.02 10.82c16.52-1.77 29.68-5.09 36.44-9.2 3.22-1.95 4.99-4.09 4.99-6.32l-.02-10.82c.02 6.93-17.05 12.9-41.43 15.52z" opacity=".2"/>
      <ellipse cx="277.87" cy="218.81" fill="#f2f9fb" fill-rule="evenodd" clip-rule="evenodd" opacity=".9" rx="68.5" ry="16.8" transform="translate(-.405 .515)"/>
      <path fill="none" fill-rule="evenodd" stroke="#f2f9fb" stroke-linecap="round" stroke-miterlimit="10" d="M341.41 236.01c-10.16 6.17-34.75 10.55-63.48 10.61-28.97.05-53.74-4.31-63.77-10.52" clip-rule="evenodd" opacity=".9"/>
      <ellipse cx="277.87" cy="217.62" fill="#353595" fill-rule="evenodd" clip-rule="evenodd" opacity=".2" rx="59.64" ry="12.56" transform="translate(-.403 .515)"/>
      <path fill="#353595" fill-rule="evenodd" d="M218.23 217.73c.01 4.56 11.54 8.52 28.78 10.69l-.04-21.5c0 .01-27.34 2.63-28.74 10.81z" clip-rule="evenodd" opacity=".15"/>
      <path fill="#f2f9fb" fill-rule="evenodd" d="M311.09 207.13l.04 20.86c15.92-2.28 26.39-6.13 26.38-10.48-.01-4.35-10.49-8.16-26.42-10.38z" clip-rule="evenodd" opacity=".3"/>
    </g>
    <path fill="#4a4a89" d="M278 202.01c36.71 0 66.67 7.08 68.42 15.98v-.01c.05 0 .08 10.41.08 10.41v.87c0 2.23-1.79 4.36-5 6.3v130.37h-.04c.01.12.04.24.04.36 0 8.64-28.43 15.64-63.5 15.64s-63.5-7-63.5-15.64c0-.12.03-.24.04-.36h-.04V235.57c-3.21-1.95-5-4.07-5-6.3v-.87l.08-10.41c1.75-8.9 31.71-15.98 68.42-15.98m0-2c-33.26 0-68.12 6.04-70.38 17.6-.02.12-.04.24-.04.37l-.08 10.41v.88c0 2.67 1.68 5.16 5 7.4v129.28c0 .06 0 .11.01.17 0 .06-.01.13-.01.2 0 5.34 6.77 9.71 20.12 13 12.15 2.99 28.26 4.64 45.38 4.64s33.23-1.65 45.38-4.64c13.35-3.29 20.12-7.66 20.12-13 0-.07 0-.14-.01-.2 0-.05.01-.11.01-.16v-129.3c3.32-2.24 5-4.72 5-7.4v-.87l-.02-5.22c-.01-1.31-.02-2.61-.03-3.59-.01-.5-.01-.91-.02-1.2-.01-.29-.04-.55-.09-.78l.03-.01c-1.03-5.28-8.64-9.62-22.6-12.89-12.94-3.02-29.91-4.69-47.77-4.69z" opacity=".9"/>
    <path fill="#95d600" fill-rule="evenodd" d="M336.5 292.31c0-7.96-26.19-14.41-58.5-14.41s-58.5 6.45-58.5 14.41c0 .04.01.07.01.11h-.01v69.31h.03c-.01.11-.03.22-.03.33 0 7.96 26.19 14.41 58.5 14.41s58.5-6.45 58.5-14.41c0-.11-.02-.22-.03-.33h.03v-69.31h-.01c0-.04.01-.08.01-.11z" clip-rule="evenodd"/>
    <ellipse cx="278" cy="291.31" fill="#b7e21a" fill-rule="evenodd" clip-rule="evenodd" rx="58.5" ry="14.41"/>
    <path fill="#353595" d="M341.5 236.13c-10.17 6.15-34.77 10.49-63.5 10.49-28.97 0-53.73-4.41-63.75-10.64v10c10.02 6.23 34.78 10.64 63.75 10.64 3.22 0 6.39-.05 9.5-.16 14.1-.48 25.75 10.92 25.75 25.03v97.82c17.03-2.81 28.25-7.58 28.25-13 0-.12-.03-.24-.04-.36h.04V236.13z" opacity=".2"/>
    <path fill="#fff" d="M235.85 378c6.22 1.32 13.42 2.37 21.31 3.08l.09-134.63c-7.89-.7-15.2-1.48-21.42-2.8l.02 134.35z" opacity=".3"/>
    <g opacity=".7">
      <path fill="#2b2bbc" d="M228.98 346.4l-3.25-1c-.15-.05-.27-.23-.27-.41 0-.18.12-.29.27-.25l3.25 1c.15.05.27.23.27.41s-.13.3-.27.25zM232.22 344.46l-6.49-2c-.15-.05-.27-.23-.27-.41 0-.18.12-.29.27-.25l6.49 2c.15.05.27.23.27.41 0 .19-.12.3-.27.25zM228.98 349.34l-3.25-1c-.15-.05-.27-.23-.27-.41s.12-.29.27-.25l3.25 1c.15.05.27.23.27.41 0 .18-.13.29-.27.25zM228.98 352.27l-3.25-1c-.15-.05-.27-.23-.27-.41s.12-.29.27-.25l3.25 1c.15.05.27.23.27.41 0 .19-.13.3-.27.25zM228.98 355.21l-3.25-1c-.15-.05-.27-.23-.27-.41s.12-.29.27-.25l3.25 1c.15.05.27.23.27.41 0 .18-.13.29-.27.25zM228.98 358.14l-3.25-1c-.15-.05-.27-.23-.27-.41 0-.18.12-.29.27-.25l3.25 1c.15.05.27.23.27.41 0 .18-.13.3-.27.25zM228.98 361.08l-3.25-1c-.15-.05-.27-.23-.27-.41 0-.18.12-.29.27-.25l3.25 1c.15.05.27.23.27.41 0 .18-.13.29-.27.25zM228.98 325.97l-3.25-1c-.15-.05-.27-.23-.27-.41 0-.18.12-.29.27-.25l3.25 1c.15.05.27.23.27.41 0 .18-.13.29-.27.25zM232.22 324.03l-6.49-2c-.15-.05-.27-.23-.27-.41 0-.18.12-.29.27-.25l6.49 2c.15.05.27.23.27.41 0 .18-.12.29-.27.25zM228.98 328.9l-3.25-1c-.15-.05-.27-.23-.27-.41 0-.18.12-.29.27-.25l3.25 1c.15.05.27.23.27.41 0 .18-.13.3-.27.25zM228.98 331.84l-3.25-1c-.15-.05-.27-.23-.27-.41 0-.18.12-.29.27-.25l3.25 1c.15.05.27.23.27.41s-.13.29-.27.25zM228.98 334.77l-3.25-1c-.15-.05-.27-.23-.27-.41 0-.18.12-.29.27-.25l3.25 1c.15.05.27.23.27.41s-.13.3-.27.25zM228.98 337.7l-3.25-1c-.15-.05-.27-.23-.27-.41s.12-.29.27-.25l3.25 1c.15.05.27.23.27.41 0 .19-.13.3-.27.25zM228.98 340.64l-3.25-1c-.15-.05-.27-.23-.27-.41s.12-.29.27-.25l3.25 1c.15.05.27.23.27.41 0 .18-.13.3-.27.25zM228.98 305.53l-3.25-1c-.15-.05-.27-.23-.27-.41 0-.18.12-.29.27-.25l3.25 1c.15.05.27.23.27.41 0 .18-.13.3-.27.25zM232.22 303.59l-6.49-2c-.15-.05-.27-.23-.27-.41 0-.18.12-.29.27-.25l6.49 2c.15.05.27.23.27.41 0 .19-.12.3-.27.25zM228.98 308.46l-3.25-1c-.15-.05-.27-.23-.27-.41 0-.18.12-.29.27-.25l3.25 1c.15.05.27.23.27.41 0 .19-.13.3-.27.25zM228.98 311.4l-3.25-1c-.15-.05-.27-.23-.27-.41 0-.18.12-.29.27-.25l3.25 1c.15.05.27.23.27.41 0 .18-.13.3-.27.25zM228.98 314.34l-3.25-1c-.15-.05-.27-.23-.27-.41 0-.18.12-.29.27-.25l3.25 1c.15.05.27.23.27.41 0 .18-.13.29-.27.25zM228.98 317.27l-3.25-1c-.15-.05-.27-.23-.27-.41 0-.18.12-.29.27-.25l3.25 1c.15.05.27.23.27.41s-.13.3-.27.25zM228.98 320.2l-3.25-1c-.15-.05-.27-.23-.27-.41 0-.18.12-.29.27-.25l3.25 1c.15.05.27.23.27.41s-.13.3-.27.25zM228.98 287.65l-3.25-1c-.15-.05-.27-.23-.27-.41 0-.18.12-.29.27-.25l3.25 1c.15.05.27.23.27.41 0 .18-.13.29-.27.25zM232.22 285.71l-6.49-2c-.15-.05-.27-.23-.27-.41 0-.18.12-.29.27-.25l6.49 2c.15.05.27.23.27.41 0 .19-.12.3-.27.25zM228.98 290.58l-3.25-1c-.15-.05-.27-.23-.27-.41 0-.18.12-.29.27-.25l3.25 1c.15.05.27.23.27.41 0 .19-.13.3-.27.25zM228.98 293.52l-3.25-1c-.15-.05-.27-.23-.27-.41 0-.18.12-.29.27-.25l3.25 1c.15.05.27.23.27.41 0 .18-.13.29-.27.25zM228.98 296.45l-3.25-1c-.15-.05-.27-.23-.27-.41 0-.18.12-.29.27-.25l3.25 1c.15.05.27.23.27.41 0 .19-.13.3-.27.25zM228.98 299.39l-3.25-1c-.15-.05-.27-.23-.27-.41 0-.18.12-.29.27-.25l3.25 1c.15.05.27.23.27.41s-.13.29-.27.25zM228.98 269.77l-3.25-1c-.15-.05-.27-.23-.27-.41 0-.18.12-.29.27-.25l3.25 1c.15.05.27.23.27.41 0 .18-.13.29-.27.25zM232.22 267.83l-6.49-2c-.15-.05-.27-.23-.27-.41 0-.18.12-.29.27-.25l6.49 2c.15.05.27.23.27.41 0 .19-.12.3-.27.25zM228.98 272.7l-3.25-1c-.15-.05-.27-.23-.27-.41 0-.18.12-.29.27-.25l3.25 1c.15.05.27.23.27.41 0 .19-.13.3-.27.25zM228.98 275.64l-3.25-1c-.15-.05-.27-.23-.27-.41 0-.18.12-.29.27-.25l3.25 1c.15.05.27.23.27.41 0 .18-.13.29-.27.25zM228.98 278.57l-3.25-1c-.15-.05-.27-.23-.27-.41 0-.18.12-.29.27-.25l3.25 1c.15.05.27.23.27.41 0 .19-.13.3-.27.25zM228.98 281.51l-3.25-1c-.15-.05-.27-.23-.27-.41 0-.18.12-.29.27-.25l3.25 1c.15.05.27.23.27.41s-.13.29-.27.25zM228.98 251.89l-3.25-1c-.15-.05-.27-.23-.27-.41s.12-.29.27-.25l3.25 1c.15.05.27.23.27.41 0 .18-.13.29-.27.25zM232.22 249.95l-6.49-2c-.15-.05-.27-.23-.27-.41s.12-.29.27-.25l6.49 2c.15.05.27.23.27.41s-.12.3-.27.25zM228.98 254.82l-3.25-1c-.15-.05-.27-.23-.27-.41s.12-.29.27-.25l3.25 1c.15.05.27.23.27.41s-.13.3-.27.25zM228.98 257.76l-3.25-1c-.15-.05-.27-.23-.27-.41 0-.18.12-.29.27-.25l3.25 1c.15.05.27.23.27.41 0 .18-.13.29-.27.25zM228.98 260.69l-3.25-1c-.15-.05-.27-.23-.27-.41 0-.18.12-.29.27-.25l3.25 1c.15.05.27.23.27.41 0 .19-.13.3-.27.25zM228.98 263.63l-3.25-1c-.15-.05-.27-.23-.27-.41 0-.18.12-.29.27-.25l3.25 1c.15.05.27.23.27.41 0 .18-.13.29-.27.25zM232.22 365.75l-6.49-2c-.15-.05-.27-.23-.27-.41 0-.18.12-.29.27-.25l6.49 2c.15.05.27.23.27.41 0 .19-.12.3-.27.25z"/>
      <g fill="#2b2bbc">
        <path d="M239.68 365.68c0 1.99-.6 2.94-1.67 2.7-.94-.21-1.58-1.43-1.59-3.37 0-1.96.7-2.88 1.67-2.65 1.01.23 1.59 1.46 1.59 3.32zm-2.61-.51c0 1.52.38 2.47.98 2.61.66.15.98-.72.98-2.21 0-1.44-.3-2.45-.97-2.61-.58-.14-.99.61-.99 2.21zM243.44 366.55c0 1.98-.6 2.93-1.66 2.69-.93-.21-1.57-1.43-1.58-3.36 0-1.96.69-2.87 1.66-2.65 1.01.24 1.58 1.47 1.58 3.32zm-2.59-.51c0 1.52.38 2.47.97 2.6.66.15.98-.72.98-2.2 0-1.43-.3-2.44-.97-2.6-.57-.13-.98.61-.98 2.2zM237.9 343.87h-.01l-.84.34-.13-.63 1.05-.42.55.14v5.84l-.63-.15v-5.12zM243.44 347.35c0 1.98-.6 2.93-1.66 2.67-.93-.23-1.57-1.45-1.58-3.38 0-1.96.69-2.86 1.66-2.62 1.01.24 1.58 1.48 1.58 3.33zm-2.59-.54c0 1.52.38 2.47.97 2.61.66.16.98-.7.98-2.19 0-1.43-.3-2.45-.97-2.61-.57-.14-.98.6-.98 2.19zM236.49 327.34v-.49l.51-.47c1.23-1.1 1.78-1.72 1.79-2.6 0-.59-.24-1.2-.95-1.39-.44-.11-.8.06-1.02.23l-.21-.61c.33-.25.81-.38 1.36-.24 1.03.27 1.47 1.25 1.47 2.08 0 1.08-.64 1.78-1.65 2.71l-.38.33v.02l2.16.55v.66l-3.08-.78zM243.44 326.15c0 1.98-.6 2.92-1.66 2.65-.93-.24-1.57-1.47-1.58-3.4 0-1.96.69-2.85 1.66-2.6 1.01.26 1.58 1.5 1.58 3.35zm-2.59-.58c0 1.52.38 2.48.97 2.63.66.17.98-.69.98-2.18 0-1.43-.3-2.45-.97-2.63-.57-.14-.98.59-.98 2.18zM236.64 307.17c.19.19.61.54 1.06.66.83.23 1.09-.35 1.09-.84-.01-.82-.61-1.33-1.24-1.51l-.36-.1v-.59l.36.1c.47.13 1.07 0 1.07-.7 0-.47-.24-.95-.84-1.11-.38-.11-.75 0-.96.12l-.17-.62c.25-.16.74-.25 1.26-.1.94.26 1.37 1.06 1.37 1.77 0 .6-.29 1.03-.89 1.13v.02c.59.31 1.07.98 1.07 1.79 0 .93-.6 1.59-1.75 1.28a2.95 2.95 0 0 1-1.25-.73l.18-.57zM243.44 306.95c0 1.98-.6 2.91-1.66 2.62-.93-.25-1.57-1.49-1.58-3.43 0-1.96.69-2.84 1.66-2.58 1.01.29 1.58 1.54 1.58 3.39zm-2.59-.62c0 1.52.38 2.48.97 2.64.66.18.98-.68.98-2.16 0-1.43-.3-2.46-.97-2.64-.57-.16-.98.57-.98 2.16z"/>
        <g>
          <path d="M238.5 290.32v-1.59l-2.23-.64v-.52l2.14-3.12.7.2v3.63l.67.19v.62l-.67-.19v1.59l-.61-.17zm0-2.22v-1.95c0-.31.01-.61.02-.91l-.02-.01c-.15.3-.27.52-.4.75l-1.18 1.65v.02l1.58.45zM243.44 288.75c0 1.98-.6 2.9-1.66 2.6-.93-.27-1.57-1.51-1.58-3.45 0-1.96.69-2.83 1.66-2.55 1.01.29 1.58 1.55 1.58 3.4zm-2.59-.65c0 1.52.38 2.49.97 2.65.66.19.98-.66.98-2.15 0-1.43-.3-2.46-.97-2.65-.57-.17-.98.56-.98 2.15z"/>
        </g>
        <g>
          <path d="M239.35 267.13l-1.83-.55-.18 1.45a2.327 2.327 0 0 1 1.42.71c.38.37.69.97.69 1.71 0 1.14-.74 1.77-1.79 1.46-.52-.16-.97-.47-1.2-.72l.16-.55c.2.2.59.5 1.03.63.61.18 1.14-.15 1.14-.93-.01-.76-.42-1.42-1.38-1.71-.27-.08-.49-.11-.67-.14l.31-2.71 2.3.7v.65zM243.44 270.55c0 1.98-.6 2.89-1.66 2.58-.93-.28-1.57-1.54-1.58-3.47 0-1.96.69-2.82 1.66-2.53 1.01.3 1.58 1.57 1.58 3.42zm-2.59-.69c0 1.52.38 2.49.97 2.67.66.2.98-.65.98-2.14 0-1.43-.3-2.47-.97-2.67-.57-.17-.98.55-.98 2.14z"/>
        </g>
        <g>
          <path d="M239.23 248.72c-.13-.05-.3-.1-.49-.12-1.02-.12-1.56.62-1.67 1.55l.02.01c.23-.3.63-.48 1.16-.31.85.27 1.45 1.2 1.45 2.34 0 1.07-.6 1.87-1.59 1.56-1.03-.32-1.7-1.5-1.7-3.02 0-1.15.34-1.95.81-2.38.4-.35.93-.48 1.54-.38.19.02.35.07.47.1v.65zm-.19 3.31c0-.84-.39-1.46-.99-1.65-.39-.12-.75.06-.93.43-.04.08-.07.18-.07.33.01.97.38 1.79 1.06 2 .56.18.93-.27.93-1.11zM243.44 252.35c0 1.98-.6 2.88-1.66 2.55-.93-.29-1.57-1.56-1.58-3.49 0-1.96.69-2.82 1.66-2.51 1.01.32 1.58 1.6 1.58 3.45zm-2.59-.72c0 1.52.38 2.5.97 2.68.66.21.98-.64.98-2.12 0-1.43-.3-2.47-.97-2.68-.57-.19-.98.53-.98 2.12z"/>
        </g>
      </g>
    </g>
  </g>
</svg>
