<svg xmlns="http://www.w3.org/2000/svg" viewBox="0 0 143 143">
  <g transform="translate(-1339.5 -437.5)">
    <circle cx="1411" cy="509" r="68" fill="#fff" fill-opacity=".5" stroke="#fff" stroke-miterlimit="10" stroke-width="7"/>
    <linearGradient id="a" x1="454.338" x2="453.746" y1="1044.942" y2="1043.946" gradientTransform="matrix(101.7117 -47.429 -28.5755 -61.2803 -14931.223 86038.96)" gradientUnits="userSpaceOnUse">
      <stop offset="0" stop-color="#fff" stop-opacity=".424"/>
      <stop offset="1" stop-color="#fff" stop-opacity="0"/>
    </linearGradient>
    <path fill="url(#a)" d="M1386.58 457.24c27.45-12.8 60.83-4.71 72.04 24.74 7.38 47.79-63-23.08-99.39 46.35-12.35-26.46-.1-58.29 27.35-71.09z"/>
    <linearGradient id="b" x1="460.557" x2="460.494" y1="1043.067" y2="1042.357" gradientTransform="matrix(41.7079 13.5517 5.5869 -17.1948 -23606.137 12159.257)" gradientUnits="userSpaceOnUse">
      <stop offset="0" stop-color="#fff" stop-opacity=".608"/>
      <stop offset="1" stop-color="#fff" stop-opacity="0"/>
    </linearGradient>
    <path fill="url(#b)" d="M1429.53 460.9c11.25 3.66 19.48 12.27 16.07 19.88-9.18 9.93-19.42-17.31-40.76-13.24 2.38-7.33 13.43-10.3 24.69-6.64z" opacity=".8"/>
    <linearGradient id="c" x1="455.625" x2="454.978" y1="1041.994" y2="1042.405" gradientTransform="matrix(46.914 -27.0858 -24.0548 -41.6642 5128.203 56264.59)" gradientUnits="userSpaceOnUse">
      <stop offset="0" stop-color="#00c4b3"/>
      <stop offset="1" stop-color="#9364cc"/>
    </linearGradient>
    <path fill="url(#c)" d="M1394.09 488.6c0-2.7 2.2-4.89 4.9-4.88.85 0 1.69.23 2.43.65l37.36 21.49a4.892 4.892 0 0 1 1.8 6.68c-.43.75-1.05 1.37-1.79 1.8l-37.43 21.61a4.89 4.89 0 0 1-6.68-1.79c-.43-.75-.66-1.59-.66-2.45l.07-43.11z" opacity=".9"/>
    <linearGradient id="d" x1="456.837" x2="456.56" y1="1038.951" y2="1038.372" gradientTransform="matrix(30.8251 -17.7969 -15.8857 -27.5148 3836.742 37213.46)" gradientUnits="userSpaceOnUse">
      <stop offset="0" stop-color="#fff" stop-opacity=".608"/>
      <stop offset=".557" stop-color="#fff" stop-opacity=".451"/>
      <stop offset=".813" stop-color="#fff" stop-opacity=".102"/>
      <stop offset="1" stop-color="#fff" stop-opacity="0"/>
    </linearGradient>
    <path fill="url(#d)" d="M1399.41 498.67c.02-2.8 2.26-5.05 5.01-5.03.85.01 1.68.23 2.42.66l21.32 11.93c2.32 1.38 3.1 4.41 1.74 6.77-.44.76-1.07 1.39-1.82 1.82l-21.33 11.97c-2.31 1.4-5.29.63-6.67-1.72-.44-.76-.68-1.62-.68-2.5l.01-23.9z" opacity=".7"/>
  </g>
</svg>